<?xml version="1.0" encoding="UTF-8" standalone="no"?>
<!-- Created with Inkscape (http://www.inkscape.org/) -->

<svg
   xmlns:dc="http://purl.org/dc/elements/1.1/"
   xmlns:cc="http://creativecommons.org/ns#"
   xmlns:rdf="http://www.w3.org/1999/02/22-rdf-syntax-ns#"
   xmlns:svg="http://www.w3.org/2000/svg"
   xmlns="http://www.w3.org/2000/svg"
   xmlns:sodipodi="http://sodipodi.sourceforge.net/DTD/sodipodi-0.dtd"
   xmlns:inkscape="http://www.inkscape.org/namespaces/inkscape"
   width="210mm"
   height="297mm"
   viewBox="0 0 744.09448819 1052.3622047"
   id="svg5586"
   version="1.1"
   inkscape:version="0.91 r13725"
   sodipodi:docname="cliff.svg">
  <defs
     id="defs5588" />
  <sodipodi:namedview
     id="base"
     pagecolor="#ffffff"
     bordercolor="#666666"
     borderopacity="1.0"
     inkscape:pageopacity="0.0"
     inkscape:pageshadow="2"
     inkscape:zoom="0.35"
     inkscape:cx="-1525"
     inkscape:cy="565.34015"
     inkscape:document-units="px"
     inkscape:current-layer="layer1"
     showgrid="false"
     inkscape:window-width="1280"
     inkscape:window-height="698"
     inkscape:window-x="31"
     inkscape:window-y="0"
     inkscape:window-maximized="0" />
  <metadata
     id="metadata5591">
    <rdf:RDF>
      <cc:Work
         rdf:about="">
        <dc:format>image/svg+xml</dc:format>
        <dc:type
           rdf:resource="http://purl.org/dc/dcmitype/StillImage" />
        <dc:title />
      </cc:Work>
    </rdf:RDF>
  </metadata>
  <g
     inkscape:label="Layer 1"
     inkscape:groupmode="layer"
     id="layer1">
    <path
       style="fill:#aa4400;fill-rule:evenodd;stroke:#aa4400;stroke-width:10;stroke-linecap:butt;stroke-linejoin:miter;stroke-opacity:1;stroke-miterlimit:4;stroke-dasharray:none"
       d="M -2425.7143,80.933633 C -437.14286,66.647919 -437.14286,69.505062 -437.14286,69.505062"
       id="path5598"
       inkscape:connector-curvature="0" />
    <path
       style="fill:none;fill-rule:evenodd;stroke:#aa4400;stroke-width:10;stroke-linecap:butt;stroke-linejoin:miter;stroke-opacity:1;stroke-miterlimit:4;stroke-dasharray:none"
       d="M -451.42857,75.219348 C -554.28571,178.07649 -554.28571,178.07649 -554.28571,178.07649 c -1.90476,3.80952 -4.36742,7.38796 -5.71429,11.42857 -2.60131,7.80392 0.49253,3.84221 2.85714,8.57143 0.43477,0.86953 0,7.28469 0,8.57143 0,5.71428 0,11.42857 0,17.14286 0,1.49405 0.37563,10.67731 0,11.42857 -2.18797,4.37593 -5.09147,2.23433 -8.57143,5.71428 -0.67343,0.67344 0.67344,2.18371 0,2.85715 -0.67343,0.67343 -2.0053,-0.42592 -2.85714,0 -1.20468,0.60233 -1.65246,2.2548 -2.85714,2.85714 -0.85184,0.42592 -1.95364,-0.30117 -2.85714,0 -2.02031,0.67343 -3.69398,2.18371 -5.71429,2.85714 -1.80702,0.60234 -3.90727,-0.60234 -5.71429,0 -2.0203,0.67344 -3.69398,2.18371 -5.71428,2.85714 -1.54631,0.51544 -10.45522,0 -11.42857,0 -9.52381,0 -19.04762,0 -28.57143,0 -5.71429,0 -11.42857,0 -17.14286,0 -0.95238,0 -2.18371,-0.67343 -2.85714,0 -0.67344,0.67344 0.67343,2.18371 0,2.85715 -0.67344,0.67343 -2.00531,-0.42592 -2.85714,0 -1.20468,0.60234 -1.57939,2.43122 -2.85715,2.85714 -1.80701,0.60234 -4.01061,-0.85183 -5.71428,0 -0.85184,0.42592 0.67343,2.18371 0,2.85714 -0.67344,0.67344 -2.18371,-0.67343 -2.85715,0 0,7.61905 0.95239,-0.95238 -2.85714,2.85715 -0.67343,0.67343 0,1.90476 0,2.85714 0,7.61905 0,15.23809 0,22.85714 0,3.80953 0,7.61905 0,11.42857 0,0.95238 0,1.90477 0,2.85715 0,0.95238 0.95238,2.85714 0,2.85714 -0.95238,0 0,-3.80952 0,-2.85714 0,1.90476 0,3.80952 0,5.71428 0,0.95238 0.67344,2.18371 0,2.85714 -0.67343,0.67344 -2.18371,-0.67343 -2.85714,0 -0.67344,0.67344 0.42592,2.00531 0,2.85715 -0.60234,1.20467 -2.43123,1.57939 -2.85714,2.85714 -0.60234,1.80702 0.85183,4.01062 0,5.71429 -0.85184,1.70367 -4.01062,-0.85184 -5.71429,0 -1.20468,0.60233 -1.65247,2.2548 -2.85714,2.85714 -1.70367,0.85183 -3.90727,-0.60234 -5.71429,0 -2.0203,0.67343 -3.64828,2.34064 -5.71428,2.85714 -1.84789,0.46197 -3.80953,0 -5.71429,0 -4.7619,0 -9.52381,0 -14.28571,0 -0.95239,0 -1.90477,0 -2.85715,0 -0.95238,0 -2.0053,-0.42592 -2.85714,0 -8.50111,4.25056 1.15838,14.90371 2.85714,20 0.30117,0.90351 -0.67343,2.18371 0,2.85714 0.67344,0.67344 2.00531,-0.42591 2.85715,0 0.74385,0.37193 4.82765,3.74378 2.85714,5.71429 -0.67344,0.67344 -1.90476,0 -2.85714,0 -1.90477,0 -3.80953,0 -5.71429,0 -1.93491,0 -18.69839,0.43387 -20,0 -1.27775,-0.42592 -1.90476,-1.90476 -2.85714,-2.85714 -2.85715,0 -5.71429,0 -8.57143,0 -0.95238,0 2.18371,-0.67344 2.85714,0 0.67344,0.67343 -0.67343,2.18371 0,2.85714 5.91153,5.91153 -0.23108,-9.0336 5.71429,2.85714 0.37563,0.75126 0,9.93452 0,11.42857 0,0.95239 0,3.80953 0,2.85715 0,-1.90476 0,-7.61905 0,-5.71429 0,2.85714 -0.69296,5.79959 0,8.57143 0.22315,0.89263 5.19584,3.37559 2.85714,5.71429 -0.0919,0.0919 -7.8785,0 -8.57143,0 -9.52381,0 -19.04762,0 -28.57143,0 -2.27987,0 -12.57159,0.57137 -14.28571,0 -2.02031,-0.67344 -3.64828,-2.34065 -5.71429,-2.85715 -1.84789,-0.46197 -3.80952,0 -5.71428,0 -6.66667,0 -13.33334,0 -20,0 -3.39028,0 -20.08423,-0.55458 -22.85715,0 -11.49748,2.2995 -1.31272,2.08494 -8.57142,5.71429 -0.85184,0.42592 -2.18371,-0.67344 -2.85715,0 -1.75021,1.75021 -2.43233,7.47744 -5.71428,8.57143 -1.80702,0.60234 -3.90727,-0.60234 -5.71429,0 -2.5555,0.85183 -3.47296,4.22007 -5.71428,5.71428 -1.77193,1.18129 -3.94237,1.67586 -5.71429,2.85715 -2.46543,1.64362 -6.33975,6.33975 -8.57143,8.57142 -0.95238,0.95239 -1.65246,2.25481 -2.85714,2.85715 -0.85184,0.42592 -2.18371,-0.67344 -2.85714,0 -0.67344,0.67343 0,1.90476 0,2.85714 0,0.95238 0,1.90476 0,2.85714 0,5.71429 0,11.42857 0,17.14286 0,16.19048 0,32.38095 0,48.57143 0,3.80952 0,7.61905 0,11.42857 0,3.80952 0.47251,7.64847 0,11.42857 -3.78109,30.24871 -2.85715,-7.17097 -2.85715,22.85714 0,17.14286 0,34.28572 0,51.42858 0,8.88344 1.51816,26.99354 -2.85714,34.28571 -1.09566,1.82611 -4.01061,1.57939 -5.71429,2.85714 -2.15499,1.61625 -3.47295,4.22007 -5.71428,5.71429 -0.79243,0.52828 -1.95364,-0.30117 -2.85714,0 -2.02031,0.67343 -3.64829,2.34064 -5.71429,2.85714 -1.84789,0.46197 -3.90727,-0.60234 -5.71429,0 -1.27775,0.42592 -1.57939,2.43123 -2.85714,2.85714 -1.80701,0.60234 -3.86639,-0.46197 -5.71428,0 -2.06601,0.51651 -3.73702,2.06624 -5.71429,2.85715 -2.79629,1.11851 -5.71429,1.90476 -8.57143,2.85714 -8.57143,2.85714 -17.14286,5.71429 -25.71428,8.57143 -2.85715,0.95238 -5.77515,1.73863 -8.57143,2.85714 -12.94747,5.17899 -0.39568,0.26379 -8.57143,5.71429 -1.77193,1.18128 -3.94236,1.67586 -5.71429,2.85714 -1.12066,0.74711 -1.57939,2.43123 -2.85714,2.85714 -1.807,0.60234 -3.9073,-0.60234 -5.7143,0 -1.2777,0.42592 -1.6525,2.25481 -2.8571,2.85715 -0.8519,0.42591 -2.0053,-0.42592 -2.8572,0 -2.4093,1.20467 -3.1588,4.86245 -5.7143,5.71428 -15.1606,5.05355 4.1698,-6.50188 -11.4285,2.85714 -2.9445,1.76671 -5.8901,3.56918 -8.5715,5.71429 -11.7327,9.38618 1.1039,2.63454 -14.2857,11.42857 -7.396,4.22629 -15.4611,7.20229 -22.8571,11.42857 -19.5773,11.18705 0.7322,0.16516 -14.2857,11.42857 -1.7037,1.27776 -3.694,2.18371 -5.7143,2.85715 -5.2778,1.75925 -1.3546,-4.35973 -8.5714,2.85714 -0.6735,0.67344 0.6734,2.18371 0,2.85714 -5.9116,5.91153 0.231,-9.0336 -5.7143,2.85715 -0.4259,0.85183 0.6734,2.1837 0,2.85714 -0.6735,0.67343 -1.9048,0 -2.8572,0 -1.9047,0 -3.8095,0 -5.7143,0 -6.6666,0 -13.3333,0 -20,0 -7.619,0 -15.2381,0 -22.8571,0 -5.7143,0 -11.4454,-0.43827 -17.1429,0 -6.7145,0.5165 -13.2854,2.34064 -20,2.85714 -5.6974,0.43827 -11.4569,-0.56859 -17.1428,0 -3.9073,0.39073 -7.5321,2.37009 -11.4286,2.85714 -3.7801,0.47252 -7.6709,-0.62628 -11.4286,0 -10.3477,1.72463 -2.0398,2.44852 -8.5714,5.71429 -0.8518,0.42592 -2.0053,-0.42592 -2.8571,0 -1.2047,0.60234 -1.6525,2.2548 -2.8572,2.85714 -0.8518,0.42592 -1.9047,0 -2.8571,0 -0.9524,0.95238 -1.6525,2.25481 -2.8572,2.85715 -0.8518,0.42591 -2.0647,-0.52829 -2.8571,0 -8.4822,5.65481 -3.7869,6.644 -11.4286,14.28571 -2.4281,2.4281 -5.89,3.56917 -8.5714,5.71429 -5.8762,4.70093 -11.2213,12.70165 -17.1429,17.14285 -3.4073,2.55551 -8.0212,3.15878 -11.4285,5.71429 -17.9432,13.45737 9.0206,-2.55523 -14.2857,11.42857 -3.6523,2.19133 -7.8848,3.35172 -11.4286,5.71429 -1.1207,0.74711 -1.5794,2.43122 -2.8572,2.85714 -1.807,0.60234 -3.9072,-0.60234 -5.7142,0 -1.2778,0.42592 -1.9048,1.90476 -2.8572,2.85714 -0.9524,0.95238 -2.11,1.73648 -2.8571,2.85714 -1.1813,1.77193 -1.3513,4.20844 -2.8572,5.71429 -1.5058,1.50585 -4.0106,1.57939 -5.7143,2.85714 -5.3333,4 -8.9523,10.28572 -14.2857,14.28572 -1.7036,1.27775 -3.9423,1.67586 -5.7143,2.85714 -2.2413,1.49422 -3.4729,4.22007 -5.7142,5.71429 -1.772,1.18128 -4.2085,1.35129 -5.7143,2.85714 -1.5059,1.50585 -1.0852,4.533 -2.8572,5.71428 -1.5848,1.05658 -4.3674,-1.34687 -5.7143,0 -2.1295,2.12959 -1.0501,6.16208 -2.8571,8.57143 -6.6904,8.92054 -3.5291,0.33599 -8.5714,2.85715 -2.2926,1.14626 -3.4218,4.56801 -5.7143,5.71428 -0.8518,0.42592 -1.9048,0 -2.8572,0 -0.9523,0.95238 -1.6524,2.25481 -2.8571,2.85714 -0.8518,0.42592 -2.1837,-0.67343 -2.8571,0 -0.6735,0.67344 0.6734,2.18371 0,2.85715 -0.6735,0.67343 -2.1838,-0.67344 -2.8572,0 -1.9409,1.94093 2.9214,5.68217 -2.8571,8.57143 -1.7958,0.89789 -9.6328,-0.89789 -11.4286,0 -1.2047,0.60233 -1.6525,2.2548 -2.8571,2.85714 -1.7037,0.85183 -4.3675,-1.34687 -5.7143,0 -1.3469,1.34687 0.8518,4.01061 0,5.71428 -0.6024,1.20468 -2.2548,1.65247 -2.8572,2.85715 -0.4259,0.85183 0.6735,2.18371 0,2.85714 -0.6734,0.67344 -1.9047,0 -2.8571,0 -0.9524,0 -2.8572,0.95238 -2.8572,0 0,-0.95238 2.8572,-0.95238 2.8572,0 0,2.12959 -2.4395,3.62605 -2.8572,5.71429 -0.5603,2.80166 0,5.71428 0,8.57142 0,4.76191 0,9.52381 0,14.28572"
       id="path6140"
       inkscape:connector-curvature="0" />
    <path
       style="fill:#aa4400;fill-rule:evenodd;stroke:none;stroke-width:10;stroke-linecap:butt;stroke-linejoin:miter;stroke-opacity:1;stroke-miterlimit:4;stroke-dasharray:none"
       d="m -462.85714,66.647919 c 57.14285,0 -25.71429,48.571431 -25.71429,48.571431 l 0,0"
       id="path4204"
       inkscape:connector-curvature="0" />
    <path
       style="fill:#aa4400;fill-opacity:0.13065198;stroke:#aa4400;stroke-width:28.5714283;stroke-linejoin:miter;stroke-miterlimit:4;stroke-dasharray:none;stroke-opacity:1"
       d=""
       id="path4212"
       inkscape:connector-curvature="0" />
    <path
       style="fill:#aa4400;fill-opacity:0.13065198;stroke:#aa4400;stroke-width:10;stroke-linejoin:miter;stroke-miterlimit:4;stroke-dasharray:none;stroke-opacity:1"
       d="m -1461,910.5926 c 0,-8.69017 1.4601,-15.02474 3.7869,-16.42857 2.0828,-1.25666 4.5866,-4.46389 5.5641,-7.1272 0.9884,-2.69303 6.2825,-5.68754 11.9274,-6.74654 5.5826,-1.04729 10.1502,-3.05869 10.1502,-4.46975 0,-1.41108 6.4285,-6.52114 14.2857,-11.35568 7.8571,-4.83455 14.2857,-9.7518 14.2857,-10.92726 0,-1.17543 6.7516,-6.7872 15.0036,-12.47054 8.252,-5.68337 20.7877,-16.22783 27.8572,-23.43209 7.0694,-7.20426 17.3359,-15.0436 22.8145,-17.42071 5.4785,-2.37715 12.55,-6.68175 15.7143,-9.56577 3.1643,-2.88406 9.6104,-7.21858 14.3247,-9.63229 4.7143,-2.41369 16.8758,-12.75611 27.0257,-22.98311 10.1498,-10.22703 23.6498,-21.14952 30,-24.27218 13.0258,-6.4054 63.073,-11.88171 108.5854,-11.88171 23.5357,0 28.3663,-0.82109 33.6185,-5.71429 3.3735,-3.14285 8.3051,-5.71428 10.9593,-5.71428 2.6541,0 6.5133,-2.03349 8.576,-4.51886 2.0627,-2.48537 11.5415,-8.4494 21.0641,-13.2534 9.5226,-4.804 22.3667,-13.05623 28.5424,-18.33828 6.1757,-5.28206 12.6904,-9.60375 14.4771,-9.60375 1.7867,0 10.8767,-3.97097 20.2,-8.82437 9.3233,-4.85343 33.66576,-14.6188 54.09433,-21.70086 20.42857,-7.08205 39.24983,-14.75234 41.82503,-17.04508 4.08783,-3.63946 4.9486,-16.78774 6.78103,-103.57937 l 2.09885,-99.41072 23.21897,-18.29123 23.21898,-18.29122 45.71428,0.59785 c 25.14286,0.3288 48.60714,1.31757 52.14286,2.19729 5.64748,1.40511 6.42857,0.50286 6.42857,-7.42574 0,-5.09558 -2.05606,-10.5286 -4.72223,-12.47812 -8.78077,-6.42068 -1.71928,-10.16954 15.372,-8.16077 14.99766,1.76266 15.87566,1.53486 13.74672,-3.56666 -7.88298,-18.88979 -4.50569,-22.84232 21.02845,-24.61002 25.25537,-1.74841 28.86077,-6.47756 28.86077,-37.85611 0,-25.07436 1.3198,-27.77762 17.14286,-35.1124 3.92857,-1.82109 22.57143,-3.71306 41.42857,-4.20438 27.98315,-0.7291 36.05392,-1.93604 43.90472,-6.5657 l 9.61897,-5.67239 -1.61403,-25.58213 -1.61403,-25.58213 43.75943,-44.41787 c 38.00097,-38.57275 53.0878,-56.963587 53.0878,-64.713949 0,-2.636758 -975.3863,2.437286 -1743.5714,9.070211 -185.7047,1.603474 -213.5715,1.302455 -213.5715,-2.307015 0,-3.593185 42.337,-4.412483 315,-6.09583 173.25,-1.069598 492.4286,-3.143587 709.2858,-4.608864 664.85827,-4.492365 944.75724,-4.782271 952.8571,-0.986925 l 7.14286,3.346925 -19.82135,18.081648 c -10.90174,9.944909 -36.87814,34.795929 -57.72537,55.224499 l -37.90403,37.14286 1.68226,25.85026 1.68223,25.85025 -9.0456,7.61138 c -12.43414,10.46263 -25.56774,13.51069 -58.29574,13.52932 -19.48272,0.0111 -30.563,1.34181 -36.42857,4.37502 -8.24449,4.26338 -8.42955,4.84966 -8.42955,26.70389 0,28.37318 -4.52583,38.24901 -19.59797,42.76473 -6.08574,1.82333 -16.38011,3.31515 -22.87637,3.31515 -13.5736,0 -15.01423,3.72902 -5.91143,15.3014 7.95614,10.11454 5.06483,13.27003 -12.15906,13.27003 l -14.49328,0 1.51923,11.32666 c 1.28054,9.5472 0.62505,11.61045 -4.17232,13.13308 -3.13037,0.99355 -28.39474,0.90346 -56.14303,-0.20028 l -50.45148,-2.00657 -6.9266,7.44497 c -3.80966,4.09474 -8.30966,7.4796 -10,7.52185 -1.69037,0.0423 -7.5734,3.8028 -13.0734,8.35669 l -10,8.27986 -2.85714,100.49028 -2.85715,100.49032 -8.19274,6.52794 c -4.506,3.59034 -25.07743,11.95737 -45.71429,18.59337 -20.63685,6.63597 -39.45011,13.66206 -41.80725,15.61349 -4.97735,4.12065 -29.23976,15.85691 -32.78096,15.85691 -1.323,0 -8.9528,4.9962 -16.9551,11.10269 -8.0023,6.10648 -20.1948,13.93917 -27.0943,17.40594 -6.8996,3.46677 -15.1778,8.75629 -18.396,11.75446 -3.2181,2.99814 -7.338,5.4512 -9.1553,5.4512 -1.8173,0 -5.6312,2.57143 -8.4755,5.71428 -4.6038,5.08717 -8.8071,5.71537 -38.3,5.72406 -18.2207,0.006 -47.6538,1.3704 -65.4068,3.0334 -37.8565,3.54614 -43.2866,6.11411 -73.0143,34.52969 -11.2319,10.7362 -21.965,19.53154 -23.8512,19.5452 -1.8862,0.0143 -4.4576,1.85508 -5.7143,4.09211 -1.2566,2.237 -9.3562,7.8224 -17.9991,12.41197 -8.6429,4.58957 -20.8571,13.17134 -27.1429,19.07063 -6.2857,5.89926 -15.9112,14.13529 -21.3899,18.30229 -5.4788,4.167 -13.8359,11.5058 -18.5715,16.30845 -4.7355,4.80263 -12.1372,10.47963 -16.4482,12.61555 -4.3111,2.13591 -9.805,6.88505 -12.2088,10.55362 -2.5771,3.93323 -7.1945,6.67018 -11.2529,6.67018 -9.2037,0 -18.7001,13.64502 -18.7001,26.86962 0,7.227 -1.2708,10.27323 -4.2857,10.27323 -3.2324,0 -4.2857,-3.47628 -4.2857,-14.14374 z"
       id="path4216"
       inkscape:connector-curvature="0" />
  </g>
</svg>
