<?xml version="1.0" encoding="UTF-8" standalone="no"?>
<!-- Created with Inkscape (http://www.inkscape.org/) -->

<svg
   xmlns:dc="http://purl.org/dc/elements/1.1/"
   xmlns:cc="http://creativecommons.org/ns#"
   xmlns:rdf="http://www.w3.org/1999/02/22-rdf-syntax-ns#"
   xmlns:svg="http://www.w3.org/2000/svg"
   xmlns="http://www.w3.org/2000/svg"
   xmlns:sodipodi="http://sodipodi.sourceforge.net/DTD/sodipodi-0.dtd"
   xmlns:inkscape="http://www.inkscape.org/namespaces/inkscape"
   width="210mm"
   height="297mm"
   viewBox="0 0 744.09448819 1052.3622047"
   id="svg4232"
   version="1.1"
   inkscape:version="0.91 r13725"
   sodipodi:docname="monster-eyes.svg">
  <defs
     id="defs4234">
    <inkscape:perspective
       sodipodi:type="inkscape:persp3d"
       inkscape:vp_x="0 : 526.1811 : 1"
       inkscape:vp_y="0 : 1000 : 0"
       inkscape:vp_z="744.09449 : 526.1811 : 1"
       inkscape:persp3d-origin="372.04724 : 350.7874 : 1"
       id="perspective4874" />
  </defs>
  <sodipodi:namedview
     id="base"
     pagecolor="#ffffff"
     bordercolor="#666666"
     borderopacity="1.0"
     inkscape:pageopacity="0.0"
     inkscape:pageshadow="2"
     inkscape:zoom="0.49497475"
     inkscape:cx="-586.55045"
     inkscape:cy="613.60142"
     inkscape:document-units="px"
     inkscape:current-layer="layer1"
     showgrid="false"
     inkscape:window-width="1280"
     inkscape:window-height="698"
     inkscape:window-x="71"
     inkscape:window-y="0"
     inkscape:window-maximized="0" />
  <metadata
     id="metadata4237">
    <rdf:RDF>
      <cc:Work
         rdf:about="">
        <dc:format>image/svg+xml</dc:format>
        <dc:type
           rdf:resource="http://purl.org/dc/dcmitype/StillImage" />
        <dc:title />
      </cc:Work>
    </rdf:RDF>
  </metadata>
  <g
     inkscape:label="Layer 1"
     inkscape:groupmode="layer"
     id="layer1">
    <path
       style="fill:#ffff00;stroke:#222222;stroke-width:3;stroke-miterlimit:4;stroke-dasharray:none;stroke-opacity:1"
       id="path4264"
       sodipodi:type="arc"
       sodipodi:cx="-1270.772"
       sodipodi:cy="161.40765"
       sodipodi:rx="72.73098"
       sodipodi:ry="119.198"
       sodipodi:start="0.41796449"
       sodipodi:end="3.5449883"
       d="m -1204.3019,209.79024 a 72.73098,119.198 0 0 1 -95.5067,60.90404 72.73098,119.198 0 0 1 -37.8565,-156.07705 l 66.8931,46.79042 z" />
    <path
       d="m 1201.8033,209.83086 a 72.73098,119.198 0 0 1 -95.5067,60.90404 72.73098,119.198 0 0 1 -37.8565,-156.07705 l 66.8932,46.79042 z"
       sodipodi:end="3.5449883"
       sodipodi:start="0.41796449"
       sodipodi:ry="119.198"
       sodipodi:rx="72.73098"
       sodipodi:cy="161.44827"
       sodipodi:cx="1135.3333"
       sodipodi:type="arc"
       id="path4270"
       style="fill:#ffff00;stroke:#222222;stroke-width:3;stroke-miterlimit:4;stroke-dasharray:none;stroke-opacity:1"
       transform="scale(-1,1)" />
    <ellipse
       style="fill:#000000;stroke:#222222;stroke-width:3;stroke-miterlimit:4;stroke-dasharray:none;stroke-opacity:1"
       id="path4276"
       cx="-1271.782"
       cy="257.37213"
       rx="19.192898"
       ry="21.213203" />
    <ellipse
       ry="21.213203"
       rx="19.192898"
       cy="255.41275"
       cx="-1134.3606"
       id="ellipse4280"
       style="fill:#000000;stroke:#222222;stroke-width:3;stroke-miterlimit:4;stroke-dasharray:none;stroke-opacity:1" />
    <path
       style="fill:#d40000;stroke:#222222;stroke-width:3;stroke-linejoin:miter;stroke-miterlimit:4;stroke-dasharray:none;stroke-opacity:1"
       id="path4286"
       sodipodi:type="arc"
       sodipodi:cx="-1266.7313"
       sodipodi:cy="413.9458"
       sodipodi:rx="74.751289"
       sodipodi:ry="105.05586"
       sodipodi:start="0.59269058"
       sodipodi:end="3.7187384"
       d="m -1204.7296,472.62945 a 74.751289,105.05586 0 0 1 -103.2742,28.90744 74.751289,105.05586 0 0 1 -21.3709,-144.91316 l 62.6434,57.32207 z" />
    <ellipse
       style="fill:#000000;stroke:#222222;stroke-width:3;stroke-miterlimit:4;stroke-dasharray:none;stroke-opacity:1"
       id="ellipse4290"
       cx="-1257.6399"
       cy="495.84937"
       rx="19.192898"
       ry="21.213203" />
    <path
       style="fill:#008000;stroke:#222222;stroke-width:3;stroke-linejoin:miter;stroke-miterlimit:4;stroke-dasharray:none;stroke-opacity:1"
       id="path4844"
       sodipodi:type="arc"
       sodipodi:cx="1096.2405"
       sodipodi:cy="598.63037"
       sodipodi:rx="87.88327"
       sodipodi:ry="123.23861"
       sodipodi:start="0.3212717"
       sodipodi:end="3.501529"
       d="m 1179.6272,637.54585 a 87.88327,123.23861 0 0 1 -66.8376,82.1184 87.88327,123.23861 0 0 1 -83.7575,-41.6273 87.88327,123.23861 0 0 1 -15.0433,-122.81302 l 82.2517,43.40644 z"
       transform="scale(-1,1)" />
    <path
       d="m -1180.3141,634.68874 a 87.88327,123.23861 0 0 1 -66.8376,82.11839 87.88327,123.23861 0 0 1 -83.7575,-41.6273 87.88327,123.23861 0 0 1 -15.0432,-122.81302 l 82.2516,43.40644 z"
       sodipodi:end="3.501529"
       sodipodi:start="0.3212717"
       sodipodi:ry="123.23861"
       sodipodi:rx="87.88327"
       sodipodi:cy="595.77325"
       sodipodi:cx="-1263.7008"
       sodipodi:type="arc"
       id="path4848"
       style="fill:#008000;stroke:#222222;stroke-width:3;stroke-linejoin:miter;stroke-miterlimit:4;stroke-dasharray:none;stroke-opacity:1" />
    <path
       d="m 1203.8307,472.62945 a 74.751289,105.05586 0 0 1 -103.2742,28.90744 74.751289,105.05586 0 0 1 -21.3709,-144.91316 l 62.6434,57.32207 z"
       sodipodi:end="3.7187384"
       sodipodi:start="0.59269058"
       sodipodi:ry="105.05586"
       sodipodi:rx="74.751289"
       sodipodi:cy="413.9458"
       sodipodi:cx="1141.829"
       sodipodi:type="arc"
       id="path4854"
       style="fill:#d40000;stroke:#222222;stroke-width:3;stroke-linejoin:miter;stroke-miterlimit:4;stroke-dasharray:none;stroke-opacity:1"
       transform="scale(-1,1)" />
    <ellipse
       style="fill:#000000;stroke:#222222;stroke-width:3;stroke-miterlimit:4;stroke-dasharray:none;stroke-opacity:1"
       id="ellipse4856"
       cx="-1150.5433"
       cy="493.82907"
       rx="19.192898"
       ry="21.213203" />
    <ellipse
       ry="21.213203"
       rx="19.192898"
       cy="685.73773"
       cx="-1122.2997"
       id="ellipse4858"
       style="fill:#000000;stroke:#222222;stroke-width:3;stroke-miterlimit:4;stroke-dasharray:none;stroke-opacity:1" />
    <ellipse
       style="fill:#000000;stroke:#222222;stroke-width:3;stroke-miterlimit:4;stroke-dasharray:none;stroke-opacity:1"
       id="ellipse4860"
       cx="-1283.4774"
       cy="689.79865"
       rx="19.192898"
       ry="21.213203" />
    <path
       style="fill:#ffff00;stroke:#222222;stroke-width:3;stroke-linejoin:miter;stroke-miterlimit:4;stroke-dasharray:none;stroke-opacity:1"
       id="path4862"
       sodipodi:type="arc"
       sodipodi:cx="1230.209"
       sodipodi:cy="824.65857"
       sodipodi:rx="76.771591"
       sodipodi:ry="87.88327"
       sodipodi:start="0.017453293"
       sodipodi:end="3.1241232"
       d="m 1306.9689,826.19234 a 76.771591,87.88327 0 0 1 -76.7593,86.3495 76.771591,87.88327 0 0 1 -76.7605,-86.34808 l 76.7599,-1.53519 z"
       transform="scale(-1,1)" />
    <path
       transform="scale(-1,1)"
       d="m 1151.4054,826.19234 a 76.771591,87.88327 0 0 1 -76.7593,86.3495 76.771591,87.88327 0 0 1 -76.76047,-86.34808 l 76.75987,-1.53519 z"
       sodipodi:end="3.1241232"
       sodipodi:start="0.017453293"
       sodipodi:ry="87.88327"
       sodipodi:rx="76.771591"
       sodipodi:cy="824.65857"
       sodipodi:cx="1074.6455"
       sodipodi:type="arc"
       id="path4864"
       style="fill:#ffff00;stroke:#222222;stroke-width:3;stroke-linejoin:miter;stroke-miterlimit:4;stroke-dasharray:none;stroke-opacity:1" />
    <path
       sodipodi:type="star"
       style="fill:#000000;stroke:#222222;stroke-width:10;stroke-linejoin:miter;stroke-miterlimit:4;stroke-dasharray:none;stroke-opacity:1"
       id="path4892"
       sodipodi:sides="3"
       sodipodi:cx="-674.78192"
       sodipodi:cy="502.83923"
       sodipodi:r1="131.56825"
       sodipodi:r2="131.56825"
       sodipodi:arg1="-0.061460956"
       sodipodi:arg2="0.9857366"
       inkscape:flatsided="true"
       inkscape:rounded="0"
       inkscape:randomized="0"
       d="M -543.46209,494.75801 -733.4433,620.60616 -747.44038,393.15353 Z"
       inkscape:transform-center-x="-18.578969"
       inkscape:transform-center-y="-28.713756"
       transform="matrix(0.89523551,0.17929518,0.08112704,0.23985369,-703.1611,807.8925)" />
    <path
       transform="matrix(-0.89523551,0.17929518,-0.08112704,0.23985369,-1603.7167,805.87219)"
       inkscape:transform-center-y="-28.713756"
       inkscape:transform-center-x="18.578987"
       d="M -543.46209,494.75801 -733.4433,620.60616 -747.44038,393.15353 Z"
       inkscape:randomized="0"
       inkscape:rounded="0"
       inkscape:flatsided="true"
       sodipodi:arg2="0.9857366"
       sodipodi:arg1="-0.061460956"
       sodipodi:r2="131.56825"
       sodipodi:r1="131.56825"
       sodipodi:cy="502.83923"
       sodipodi:cx="-674.78192"
       sodipodi:sides="3"
       id="path4896"
       style="fill:#000000;stroke:#222222;stroke-width:10;stroke-linejoin:miter;stroke-miterlimit:4;stroke-dasharray:none;stroke-opacity:1"
       sodipodi:type="star" />
    <ellipse
       ry="21.213203"
       rx="19.192898"
       cy="887.38959"
       cx="-1239.3003"
       id="ellipse4900"
       style="fill:#d40000;stroke:#d62222;stroke-width:3;stroke-miterlimit:4;stroke-dasharray:none;stroke-opacity:1" />
    <ellipse
       style="fill:#d40000;stroke:#d62222;stroke-width:3;stroke-miterlimit:4;stroke-dasharray:none;stroke-opacity:1"
       id="ellipse4902"
       cx="-1089.7977"
       cy="883.32867"
       rx="19.192898"
       ry="21.213203" />
    <ellipse
       style="fill:#ffffff;stroke:#ffffff;stroke-width:1.38605762;stroke-linejoin:miter;stroke-miterlimit:4;stroke-dasharray:none;stroke-opacity:1"
       id="path4912"
       cx="-1094.8485"
       cy="-887.06781"
       rx="6.3272762"
       ry="7.4389544"
       transform="scale(1,-1)" />
    <ellipse
       transform="scale(1,-1)"
       ry="7.4389544"
       rx="6.3272762"
       cy="-893.14899"
       cx="-1242.3511"
       id="ellipse4916"
       style="fill:#ffffff;stroke:#ffffff;stroke-width:1.38605762;stroke-linejoin:miter;stroke-miterlimit:4;stroke-dasharray:none;stroke-opacity:1" />
    <path
       d="m -750.76289,209.17688 a 72.73098,119.198 0 0 1 -95.50668,60.90404 72.73098,119.198 0 0 1 -37.85651,-156.07705 l 66.89311,46.79043 z"
       sodipodi:end="3.5449883"
       sodipodi:start="0.41796449"
       sodipodi:ry="119.198"
       sodipodi:rx="72.73098"
       sodipodi:cy="160.7943"
       sodipodi:cx="-817.23297"
       sodipodi:type="arc"
       id="path4217"
       style="fill:#000000;stroke:#222222;stroke-width:3;stroke-miterlimit:4;stroke-dasharray:none;stroke-opacity:1" />
    <path
       transform="scale(-1,1)"
       style="fill:#000000;stroke:#222222;stroke-width:3;stroke-miterlimit:4;stroke-dasharray:none;stroke-opacity:1"
       id="path4219"
       sodipodi:type="arc"
       sodipodi:cx="681.79425"
       sodipodi:cy="160.83488"
       sodipodi:rx="72.73098"
       sodipodi:ry="119.198"
       sodipodi:start="0.41796449"
       sodipodi:end="3.5449883"
       d="m 748.26433,209.21747 a 72.73098,119.198 0 0 1 -95.50668,60.90404 72.73098,119.198 0 0 1 -37.85651,-156.07705 l 66.89311,46.79042 z" />
    <path
       d="m -706.15809,461.20086 a 74.751289,105.05586 0 0 1 -103.27428,28.90744 74.751289,105.05586 0 0 1 -21.37081,-144.91316 l 62.64333,57.32207 z"
       sodipodi:end="3.7187384"
       sodipodi:start="0.59269058"
       sodipodi:ry="105.05586"
       sodipodi:rx="74.751289"
       sodipodi:cy="402.51721"
       sodipodi:cx="-768.15985"
       sodipodi:type="arc"
       id="path4225"
       style="fill:#000000;stroke:#222222;stroke-width:3;stroke-linejoin:miter;stroke-miterlimit:4;stroke-dasharray:none;stroke-opacity:1" />
    <path
       transform="scale(-1,1)"
       style="fill:#000000;stroke:#222222;stroke-width:3;stroke-linejoin:miter;stroke-miterlimit:4;stroke-dasharray:none;stroke-opacity:1"
       id="path4229"
       sodipodi:type="arc"
       sodipodi:cx="643.25751"
       sodipodi:cy="402.51721"
       sodipodi:rx="74.751289"
       sodipodi:ry="105.05586"
       sodipodi:start="0.59269058"
       sodipodi:end="3.7187384"
       d="M 705.25927,461.20086 A 74.751289,105.05586 0 0 1 601.98499,490.1083 74.751289,105.05586 0 0 1 580.61417,345.19514 l 62.64334,57.32207 z" />
    <path
       transform="scale(-1,1)"
       d="m 665.3414,628.97444 a 87.88327,123.23861 0 0 1 -66.83758,82.1184 87.88327,123.23861 0 0 1 -83.75748,-41.6273 87.88327,123.23861 0 0 1 -15.04327,-122.81302 l 82.25164,43.40644 z"
       sodipodi:end="3.501529"
       sodipodi:start="0.3212717"
       sodipodi:ry="123.23861"
       sodipodi:rx="87.88327"
       sodipodi:cy="590.05896"
       sodipodi:cx="581.95471"
       sodipodi:type="arc"
       id="path4233"
       style="fill:#000000;stroke:#222222;stroke-width:3;stroke-linejoin:miter;stroke-miterlimit:4;stroke-dasharray:none;stroke-opacity:1" />
    <path
       style="fill:#000000;stroke:#222222;stroke-width:3;stroke-linejoin:miter;stroke-miterlimit:4;stroke-dasharray:none;stroke-opacity:1"
       id="path4235"
       sodipodi:type="arc"
       sodipodi:cx="-749.41504"
       sodipodi:cy="587.20184"
       sodipodi:rx="87.88327"
       sodipodi:ry="123.23861"
       sodipodi:start="0.3212717"
       sodipodi:end="3.501529"
       d="m -666.02835,626.11732 a 87.88327,123.23861 0 0 1 -66.83758,82.1184 87.88327,123.23861 0 0 1 -83.75748,-41.6273 87.88327,123.23861 0 0 1 -15.04327,-122.81302 l 82.25164,43.40644 z" />
  </g>
</svg>
