<?xml version="1.0" encoding="UTF-8" standalone="no"?>
<!-- Created with Inkscape (http://www.inkscape.org/) -->

<svg
   xmlns:dc="http://purl.org/dc/elements/1.1/"
   xmlns:cc="http://creativecommons.org/ns#"
   xmlns:rdf="http://www.w3.org/1999/02/22-rdf-syntax-ns#"
   xmlns:svg="http://www.w3.org/2000/svg"
   xmlns="http://www.w3.org/2000/svg"
   xmlns:sodipodi="http://sodipodi.sourceforge.net/DTD/sodipodi-0.dtd"
   xmlns:inkscape="http://www.inkscape.org/namespaces/inkscape"
   width="210mm"
   height="297mm"
   viewBox="0 0 744.09448819 1052.3622047"
   id="svg4937"
   version="1.1"
   inkscape:version="0.91 r13725"
   sodipodi:docname="movement-effects.svg">
  <defs
     id="defs4939" />
  <sodipodi:namedview
     id="base"
     pagecolor="#ffffff"
     bordercolor="#666666"
     borderopacity="1.0"
     inkscape:pageopacity="0.0"
     inkscape:pageshadow="2"
     inkscape:zoom="0.24748737"
     inkscape:cx="-235.70676"
     inkscape:cy="433.2813"
     inkscape:document-units="px"
     inkscape:current-layer="layer1"
     showgrid="false"
     showguides="false"
     inkscape:window-width="1280"
     inkscape:window-height="698"
     inkscape:window-x="32"
     inkscape:window-y="0"
     inkscape:window-maximized="0" />
  <metadata
     id="metadata4942">
    <rdf:RDF>
      <cc:Work
         rdf:about="">
        <dc:format>image/svg+xml</dc:format>
        <dc:type
           rdf:resource="http://purl.org/dc/dcmitype/StillImage" />
        <dc:title></dc:title>
      </cc:Work>
    </rdf:RDF>
  </metadata>
  <g
     inkscape:label="Layer 1"
     inkscape:groupmode="layer"
     id="layer1">
    <path
       sodipodi:type="star"
       style="fill:#ffffff;stroke:#d62222;stroke-width:10;stroke-linejoin:miter;stroke-miterlimit:4;stroke-dasharray:none;stroke-opacity:1"
       id="path4945"
       sodipodi:sides="7"
       sodipodi:cx="-594.28573"
       sodipodi:cy="32.362202"
       sodipodi:r1="76.694199"
       sodipodi:r2="219.12628"
       sodipodi:arg1="0.69306883"
       sodipodi:arg2="1.1418678"
       inkscape:flatsided="false"
       inkscape:rounded="0"
       inkscape:randomized="0"
       d="m -535.28571,81.362202 32.13389,150.276048 -92.65773,-122.59699 -97.4554,118.81886 38.07904,-148.880697 -153.65877,-2.111348 140.14151,-63.054207 -94.15396,-121.451668 136.67456,70.253386 36.25071,-149.336406 30.28889,150.658749 139.35785,-64.767789 -98.90494,117.615004 137.52569,68.572302 z"
       inkscape:transform-center-x="18.478921"
       inkscape:transform-center-y="-37.99357" />
    <path
       inkscape:transform-center-y="-37.99357"
       inkscape:transform-center-x="18.478921"
       d="m -961,109.93363 32.13388,150.27605 -92.65768,-122.59699 -97.4554,118.81886 38.079,-148.8807 -153.6588,-2.11134 140.1415,-63.054212 -94.1539,-121.451671 136.6745,70.2533891 36.2507,-149.3364061 30.28893,150.6587488 139.35785,-64.7677848 -98.90494,117.615001 137.52569,68.572305 z"
       inkscape:randomized="0"
       inkscape:rounded="0"
       inkscape:flatsided="false"
       sodipodi:arg2="1.1418678"
       sodipodi:arg1="0.69306883"
       sodipodi:r2="219.12628"
       sodipodi:r1="76.694199"
       sodipodi:cy="60.933631"
       sodipodi:cx="-1020"
       sodipodi:sides="7"
       id="path4947"
       style="fill:#ffffff;stroke:#d62222;stroke-width:10;stroke-linejoin:miter;stroke-miterlimit:4;stroke-dasharray:none;stroke-opacity:1"
       sodipodi:type="star" />
    <path
       sodipodi:type="star"
       style="fill:#ffffff;stroke:#d62222;stroke-width:10;stroke-linejoin:miter;stroke-miterlimit:4;stroke-dasharray:none;stroke-opacity:1"
       id="path4949"
       sodipodi:sides="7"
       sodipodi:cx="-1017.1429"
       sodipodi:cy="438.0765"
       sodipodi:r1="165.07265"
       sodipodi:r2="57.775429"
       sodipodi:arg1="1.1613591"
       sodipodi:arg2="1.6101581"
       inkscape:flatsided="false"
       inkscape:rounded="0"
       inkscape:randomized="0"
       d="m -951.4286,589.50508 -67.9878,-93.6979 -75.1459,88.06099 30.8662,-111.57471 -115.7015,-3.84629 106.4774,-45.4335 -69.1316,-92.85723 101.9089,54.92007 29.4959,-111.94479 20.60092,113.9177 105.91233,-46.73563 -76.21997,87.13299 102.57465,53.6664 -115.64569,-5.26465 z"
       inkscape:transform-center-x="1.4454669"
       inkscape:transform-center-y="-6.7581086" />
    <path
       inkscape:transform-center-y="-6.7581086"
       inkscape:transform-center-x="1.4454669"
       d="m -494.28565,589.50505 -67.98785,-93.6979 -75.14587,88.06099 30.86623,-111.57471 -115.70154,-3.84629 106.47741,-45.4335 -69.13159,-92.85723 101.90892,54.92006 29.49587,-111.94478 20.60094,113.9177 105.91232,-46.73563 -76.21997,87.13299 102.57465,53.6664 -115.64569,-5.26465 z"
       inkscape:randomized="0"
       inkscape:rounded="0"
       inkscape:flatsided="false"
       sodipodi:arg2="1.6101581"
       sodipodi:arg1="1.1613591"
       sodipodi:r2="57.775429"
       sodipodi:r1="165.07265"
       sodipodi:cy="438.07649"
       sodipodi:cx="-559.99993"
       sodipodi:sides="7"
       id="path4951"
       style="fill:#ffff00;stroke:#d62222;stroke-width:10;stroke-linejoin:miter;stroke-miterlimit:4;stroke-dasharray:none;stroke-opacity:1"
       sodipodi:type="star" />
    <path
       style="fill:none;fill-rule:evenodd;stroke:#000000;stroke-width:3;stroke-linecap:butt;stroke-linejoin:miter;stroke-opacity:1;stroke-miterlimit:4;stroke-dasharray:none"
       d="m -920,760.93363 c -2.85714,248.57147 -5.71429,245.71427 -5.71429,245.71427 l 2.85715,5.7143"
       id="path5507"
       inkscape:connector-curvature="0" />
    <path
       style="fill:none;fill-rule:evenodd;stroke:#000000;stroke-width:3;stroke-linecap:butt;stroke-linejoin:miter;stroke-opacity:1;stroke-miterlimit:4;stroke-dasharray:none"
       d="m -968.57143,952.3622 c 105.71429,2.85715 94.28572,37.14286 94.28572,37.14286 l -2.85715,-2.85714"
       id="path5509"
       inkscape:connector-curvature="0" />
    <path
       inkscape:connector-curvature="0"
       id="path5511"
       d="m -968.57143,926.64791 c 105.71429,2.85715 94.28572,37.14286 94.28572,37.14286 l -2.85715,-2.85714"
       style="fill:none;fill-rule:evenodd;stroke:#000000;stroke-width:3;stroke-linecap:butt;stroke-linejoin:miter;stroke-opacity:1;stroke-miterlimit:4;stroke-dasharray:none" />
    <path
       inkscape:connector-curvature="0"
       id="path5513"
       d="m -802.85714,783.79077 c -2.85714,248.57143 -5.71429,245.71423 -5.71429,245.71423 l 2.85715,5.7143"
       style="fill:none;fill-rule:evenodd;stroke:#000000;stroke-width:3;stroke-linecap:butt;stroke-linejoin:miter;stroke-miterlimit:4;stroke-dasharray:none;stroke-opacity:1" />
    <path
       inkscape:connector-curvature="0"
       id="path5515"
       d="m -848.57143,955.21934 c 105.71429,2.85715 94.28572,37.14286 94.28572,37.14286 l -2.85715,-2.85714"
       style="fill:none;fill-rule:evenodd;stroke:#000000;stroke-width:3;stroke-linecap:butt;stroke-linejoin:miter;stroke-opacity:1;stroke-miterlimit:4;stroke-dasharray:none" />
    <path
       style="fill:none;fill-rule:evenodd;stroke:#000000;stroke-width:3;stroke-linecap:butt;stroke-linejoin:miter;stroke-opacity:1;stroke-miterlimit:4;stroke-dasharray:none"
       d="m -848.57143,929.50505 c 105.71429,2.85715 94.28572,37.14286 94.28572,37.14286 l -2.85715,-2.85714"
       id="path5517"
       inkscape:connector-curvature="0" />
    <path
       style="fill:none;fill-rule:evenodd;stroke:#000000;stroke-width:3;stroke-linecap:butt;stroke-linejoin:miter;stroke-opacity:1;stroke-miterlimit:4;stroke-dasharray:none"
       d="m -602.85714,783.79078 c 0,220.00002 0,220.00002 0,220.00002"
       id="path5519"
       inkscape:connector-curvature="0" />
    <path
       inkscape:connector-curvature="0"
       id="path5521"
       d="m -465.71428,778.07649 c 0,220.00002 0,220.00002 0,220.00002"
       style="fill:none;fill-rule:evenodd;stroke:#000000;stroke-width:3;stroke-linecap:butt;stroke-linejoin:miter;stroke-opacity:1;stroke-miterlimit:4;stroke-dasharray:none" />
    <path
       style="fill:none;fill-rule:evenodd;stroke:#000000;stroke-width:3;stroke-linecap:butt;stroke-linejoin:miter;stroke-opacity:1;stroke-miterlimit:4;stroke-dasharray:none"
       d="m -537.14285,786.64792 c 0,219.99998 0,219.99998 0,219.99998"
       id="path5523"
       inkscape:connector-curvature="0" />
    <path
       style="fill:none;fill-rule:evenodd;stroke:#000000;stroke-width:3;stroke-linecap:butt;stroke-linejoin:miter;stroke-opacity:1;stroke-miterlimit:4;stroke-dasharray:none"
       d="m -631.71429,860.93363 c 48.57143,0 48.57143,-34.28571 48.57143,-34.28571 l -8.57143,5.71428"
       id="path5525"
       inkscape:connector-curvature="0" />
    <path
       inkscape:connector-curvature="0"
       id="path5527"
       d="M -568.57143,938.07649 C -520,938.07649 -520,903.79078 -520,903.79078 l -8.57143,5.71428"
       style="fill:none;fill-rule:evenodd;stroke:#000000;stroke-width:3;stroke-linecap:butt;stroke-linejoin:miter;stroke-opacity:1;stroke-miterlimit:4;stroke-dasharray:none" />
    <path
       style="fill:none;fill-rule:evenodd;stroke:#000000;stroke-width:3;stroke-linecap:butt;stroke-linejoin:miter;stroke-opacity:1;stroke-miterlimit:4;stroke-dasharray:none"
       d="m -497.14286,866.64792 c 48.57143,0 48.57143,-34.28571 48.57143,-34.28571 l -8.57143,5.71428"
       id="path5529"
       inkscape:connector-curvature="0" />
    <path
       inkscape:connector-curvature="0"
       id="path5531"
       d="m -574.28572,900.93363 c 48.57143,0 48.57143,-34.28571 48.57143,-34.28571 l -8.57143,5.71428"
       style="fill:none;fill-rule:evenodd;stroke:#000000;stroke-width:3;stroke-linecap:butt;stroke-linejoin:miter;stroke-opacity:1;stroke-miterlimit:4;stroke-dasharray:none" />
    <path
       style="fill:none;fill-rule:evenodd;stroke:#000000;stroke-width:3;stroke-linecap:butt;stroke-linejoin:miter;stroke-opacity:1;stroke-miterlimit:4;stroke-dasharray:none"
       d="m -497.14286,849.50506 c 48.57143,0 48.57143,-34.28571 48.57143,-34.28571 l -8.57143,5.71428"
       id="path5533"
       inkscape:connector-curvature="0" />
    <path
       inkscape:connector-curvature="0"
       id="path5535"
       d="M -634.57143,892.3622 C -586,892.3622 -586,858.07649 -586,858.07649 l -8.57143,5.71428"
       style="fill:none;fill-rule:evenodd;stroke:#000000;stroke-width:3;stroke-linecap:butt;stroke-linejoin:miter;stroke-opacity:1;stroke-miterlimit:4;stroke-dasharray:none" />
    <path
       style="fill:none;fill-rule:evenodd;stroke:#000000;stroke-width:3;stroke-linecap:butt;stroke-linejoin:miter;stroke-miterlimit:4;stroke-dasharray:none;stroke-opacity:1"
       d="m -412.18553,1199.7107 c 105.71429,-2.8572 94.28572,-37.1429 94.28572,-37.1429 l -2.85715,2.8571"
       id="path5537"
       inkscape:connector-curvature="0" />
    <path
       inkscape:connector-curvature="0"
       id="path5539"
       d="m -351.57638,1286.5838 c 105.71429,-2.8572 94.28572,-37.1429 94.28572,-37.1429 l -2.85715,2.8572"
       style="fill:none;fill-rule:evenodd;stroke:#000000;stroke-width:3;stroke-linecap:butt;stroke-linejoin:miter;stroke-miterlimit:4;stroke-dasharray:none;stroke-opacity:1" />
    <path
       style="fill:none;fill-rule:evenodd;stroke:#000000;stroke-width:3;stroke-linecap:butt;stroke-linejoin:miter;stroke-miterlimit:4;stroke-dasharray:none;stroke-opacity:1"
       d="m -707.15007,1244.123 c 105.71429,2.8571 94.28572,37.1428 94.28572,37.1428 l -2.85715,-2.8571"
       id="path5541"
       inkscape:connector-curvature="0" />
    <path
       inkscape:connector-curvature="0"
       id="path5543"
       d="m -533.40384,1143.1421 c 105.71429,-2.8571 94.28572,-37.1428 94.28572,-37.1428 l -2.85715,2.8571"
       style="fill:none;fill-rule:evenodd;stroke:#000000;stroke-width:3;stroke-linecap:butt;stroke-linejoin:miter;stroke-miterlimit:4;stroke-dasharray:none;stroke-opacity:1" />
    <path
       style="fill:none;fill-rule:evenodd;stroke:#000000;stroke-width:3;stroke-linecap:butt;stroke-linejoin:miter;stroke-miterlimit:4;stroke-dasharray:none;stroke-opacity:1"
       d="m -872.81509,1100.6813 c 105.71429,2.8572 94.28572,37.1429 94.28572,37.1429 l -2.85715,-2.8572"
       id="path5545"
       inkscape:connector-curvature="0" />
    <path
       inkscape:connector-curvature="0"
       id="path5547"
       d="m -727.35312,1092.6001 c 105.71429,2.8571 94.28572,37.1428 94.28572,37.1428 l -2.85715,-2.8571"
       style="fill:none;fill-rule:evenodd;stroke:#000000;stroke-width:3;stroke-linecap:butt;stroke-linejoin:miter;stroke-miterlimit:4;stroke-dasharray:none;stroke-opacity:1" />
    <path
       style="fill:none;fill-rule:evenodd;stroke:#000000;stroke-width:3;stroke-linecap:butt;stroke-linejoin:miter;stroke-miterlimit:4;stroke-dasharray:none;stroke-opacity:1"
       d="m -537.44445,1260.3198 c 105.71429,-2.8571 94.28572,-37.1428 94.28572,-37.1428 l -2.85715,2.8571"
       id="path5549"
       inkscape:connector-curvature="0" />
    <path
       inkscape:connector-curvature="0"
       id="path5551"
       d="m -697.04855,1175.4326 c 105.71429,2.8571 94.28572,37.1429 94.28572,37.1429 l -2.85715,-2.8572"
       style="fill:none;fill-rule:evenodd;stroke:#000000;stroke-width:3;stroke-linecap:butt;stroke-linejoin:miter;stroke-miterlimit:4;stroke-dasharray:none;stroke-opacity:1" />
    <path
       style="fill:none;fill-rule:evenodd;stroke:#000000;stroke-width:3;stroke-linecap:butt;stroke-linejoin:miter;stroke-miterlimit:4;stroke-dasharray:none;stroke-opacity:1"
       d="m -840.49021,1199.6763 c 105.71429,2.8571 94.28572,37.1428 94.28572,37.1428 l -2.85715,-2.8571"
       id="path5553"
       inkscape:connector-curvature="0" />
    <path
       inkscape:connector-curvature="0"
       id="path5555"
       d="m -977.87096,1195.6356 c 105.71429,2.8572 94.28572,37.1429 94.28572,37.1429 l -2.85715,-2.8571"
       style="fill:none;fill-rule:evenodd;stroke:#000000;stroke-width:3;stroke-linecap:butt;stroke-linejoin:miter;stroke-miterlimit:4;stroke-dasharray:none;stroke-opacity:1" />
    <path
       style="fill:none;fill-rule:evenodd;stroke:#000000;stroke-width:3;stroke-linecap:butt;stroke-linejoin:miter;stroke-miterlimit:4;stroke-dasharray:none;stroke-opacity:1"
       d="m -1168.5714,1195.2193 c 105.7143,2.8572 94.2857,37.1429 94.2857,37.1429 l -2.8572,-2.8571"
       id="path5557"
       inkscape:connector-curvature="0" />
  </g>
</svg>
